{
    "asset" : {
        "generator" : "Khronos glTF Blender I/O v1.1.45",
        "version" : "2.0"
    },
    "scene" : 0,
    "scenes" : [
        {
            "name" : "Scene",
            "nodes" : [
                0,
                1
            ]
        }
    ],
    "nodes" : [
        {
            "mesh" : 0,
            "name" : "backboard",
            "scale" : [
                3.448119640350342,
                5.1631083488464355,
                1
            ],
            "translation" : [
                0.009885024279356003,
                0.10248793661594391,
                -1.0770169496536255
            ]
        },
        {
            "mesh" : 1,
            "name" : "Mainboard",
            "scale" : [
                1,
                1,
                0.15313909947872162
            ],
            "translation" : [
                -2.456202745437622,
                -4.434902191162109,
                0.07446856796741486
            ]
        }
    ],
    "materials" : [
        {
            "doubleSided" : true,
            "emissiveFactor" : [
                0,
                0,
                0
            ],
            "name" : "Board",
            "pbrMetallicRoughness" : {
                "baseColorTexture" : {
                    "index" : 0,
                    "texCoord" : 0
                },
                "metallicFactor" : 0,
                "roughnessFactor" : 0.5
            }
        },
        {
            "doubleSided" : true,
            "emissiveFactor" : [
                0,
                0,
                0
            ],
            "name" : "Material.001",
            "pbrMetallicRoughness" : {
                "baseColorFactor" : [
                    0.7483362555503845,
                    0.4193769693374634,
                    0.2249537706375122,
                    1
                ],
                "metallicFactor" : 0,
                "roughnessFactor" : 1
            }
        },
        {
            "doubleSided" : true,
            "emissiveFactor" : [
                0,
                0,
                0
            ],
            "name" : "Material",
            "pbrMetallicRoughness" : {
                "baseColorFactor" : [
                    0,
                    0,
                    0,
                    1
                ],
                "metallicFactor" : 0,
                "roughnessFactor" : 0.5
            }
        },
        {
            "doubleSided" : true,
            "emissiveFactor" : [
                0,
                0,
                0
            ],
            "name" : "mana logo",
            "pbrMetallicRoughness" : {
                "baseColorTexture" : {
                    "index" : 1,
                    "texCoord" : 0
                },
                "metallicFactor" : 0,
                "roughnessFactor" : 0.5
            }
        }
    ],
    "meshes" : [
        {
            "name" : "Cube.001",
            "primitives" : [
                {
                    "attributes" : {
                        "POSITION" : 0,
                        "NORMAL" : 1,
                        "TEXCOORD_0" : 2
                    },
                    "indices" : 3,
                    "material" : 0
                }
            ]
        },
        {
            "name" : "Cube",
            "primitives" : [
                {
                    "attributes" : {
                        "POSITION" : 4,
                        "NORMAL" : 5,
                        "TEXCOORD_0" : 6
                    },
                    "indices" : 7,
                    "material" : 1
                },
                {
                    "attributes" : {
                        "POSITION" : 8,
                        "NORMAL" : 9,
                        "TEXCOORD_0" : 10
                    },
                    "indices" : 11,
                    "material" : 2
                },
                {
                    "attributes" : {
                        "POSITION" : 12,
                        "NORMAL" : 13,
                        "TEXCOORD_0" : 14
                    },
                    "indices" : 15,
                    "material" : 3
                }
            ]
        }
    ],
    "textures" : [
        {
            "source" : 0
        },
        {
            "source" : 1
        }
    ],
    "images" : [
        {
            "mimeType" : "image/png",
            "name" : "backboard_texture",
            "uri" : "backboard_texture.png"
        },
        {
            "mimeType" : "image/png",
            "name" : "mana_logo",
            "uri" : "mana_logo.png"
        }
    ],
    "accessors" : [
        {
            "bufferView" : 0,
            "componentType" : 5126,
            "count" : 40,
            "max" : [
                1.0055559873580933,
                1,
                1
            ],
            "min" : [
                -1.0078710317611694,
                -1,
                -1.1922932863235474
            ],
            "type" : "VEC3"
        },
        {
            "bufferView" : 1,
            "componentType" : 5126,
            "count" : 40,
            "type" : "VEC3"
        },
        {
            "bufferView" : 2,
            "componentType" : 5126,
            "count" : 40,
            "type" : "VEC2"
        },
        {
            "bufferView" : 3,
            "componentType" : 5123,
            "count" : 60,
            "type" : "SCALAR"
        },
        {
            "bufferView" : 4,
            "componentType" : 5126,
            "count" : 606,
            "max" : [
                5.935822486877441,
                9.677515029907227,
                1
            ],
            "min" : [
                -1.0117992162704468,
                -0.6447129249572754,
                -1
            ],
            "type" : "VEC3"
        },
        {
            "bufferView" : 5,
            "componentType" : 5126,
            "count" : 606,
            "type" : "VEC3"
        },
        {
            "bufferView" : 6,
            "componentType" : 5126,
            "count" : 606,
            "type" : "VEC2"
        },
        {
            "bufferView" : 7,
            "componentType" : 5123,
            "count" : 1056,
            "type" : "SCALAR"
        },
        {
            "bufferView" : 8,
            "componentType" : 5126,
            "count" : 608,
            "max" : [
                5.580676078796387,
                9.327251434326172,
                1
            ],
            "min" : [
                -0.8543195724487305,
                -0.6447129249572754,
                -1
            ],
            "type" : "VEC3"
        },
        {
            "bufferView" : 9,
            "componentType" : 5126,
            "count" : 608,
            "type" : "VEC3"
        },
        {
            "bufferView" : 10,
            "componentType" : 5126,
            "count" : 608,
            "type" : "VEC2"
        },
        {
            "bufferView" : 11,
            "componentType" : 5123,
            "count" : 912,
            "type" : "SCALAR"
        },
        {
            "bufferView" : 12,
            "componentType" : 5126,
            "count" : 192,
            "max" : [
                4.024449348449707,
                7.786911487579346,
                0.3232809901237488
            ],
            "min" : [
                1.5266779661178589,
                5.953869819641113,
                0.32328030467033386
            ],
            "type" : "VEC3"
        },
        {
            "bufferView" : 13,
            "componentType" : 5126,
            "count" : 192,
            "type" : "VEC3"
        },
        {
            "bufferView" : 14,
            "componentType" : 5126,
            "count" : 192,
            "type" : "VEC2"
        },
        {
            "bufferView" : 15,
            "componentType" : 5123,
            "count" : 288,
            "type" : "SCALAR"
        }
    ],
    "bufferViews" : [
        {
            "buffer" : 0,
            "byteLength" : 480,
            "byteOffset" : 0
        },
        {
            "buffer" : 0,
            "byteLength" : 480,
            "byteOffset" : 480
        },
        {
            "buffer" : 0,
            "byteLength" : 320,
            "byteOffset" : 960
        },
        {
            "buffer" : 0,
            "byteLength" : 120,
            "byteOffset" : 1280
        },
        {
            "buffer" : 0,
            "byteLength" : 7272,
            "byteOffset" : 1400
        },
        {
            "buffer" : 0,
            "byteLength" : 7272,
            "byteOffset" : 8672
        },
        {
            "buffer" : 0,
            "byteLength" : 4848,
            "byteOffset" : 15944
        },
        {
            "buffer" : 0,
            "byteLength" : 2112,
            "byteOffset" : 20792
        },
        {
            "buffer" : 0,
            "byteLength" : 7296,
            "byteOffset" : 22904
        },
        {
            "buffer" : 0,
            "byteLength" : 7296,
            "byteOffset" : 30200
        },
        {
            "buffer" : 0,
            "byteLength" : 4864,
            "byteOffset" : 37496
        },
        {
            "buffer" : 0,
            "byteLength" : 1824,
            "byteOffset" : 42360
        },
        {
            "buffer" : 0,
            "byteLength" : 2304,
            "byteOffset" : 44184
        },
        {
            "buffer" : 0,
            "byteLength" : 2304,
            "byteOffset" : 46488
        },
        {
            "buffer" : 0,
            "byteLength" : 1536,
            "byteOffset" : 48792
        },
        {
            "buffer" : 0,
            "byteLength" : 576,
            "byteOffset" : 50328
        }
    ],
    "buffers" : [
        {
            "byteLength" : 50904,
            "uri" : "txpinball.bin"
        }
    ]
}
